<svg width="17" height="16" viewBox="0 0 17 16" fill="none" xmlns="http://www.w3.org/2000/svg">
<path fill-rule="evenodd" clip-rule="evenodd" d="M4.86023 4.97241L2.41665 4.97241C2.08528 4.97241 1.81665 5.24104 1.81665 5.57241C1.81665 5.90378 2.08528 6.17241 2.41665 6.17241L4.83418 6.17241C5.08008 7.12981 5.94894 7.83737 6.98306 7.83737C8.01718 7.83737 8.88604 7.12982 9.13193 6.17241L15.0833 6.17241C15.4147 6.17241 15.6833 5.90378 15.6833 5.57241C15.6833 5.24104 15.4147 4.97241 15.0833 4.97241L9.10588 4.97241C8.82914 4.06251 7.98342 3.40039 6.98306 3.40039C5.98269 3.40039 5.13697 4.06251 4.86023 4.97241ZM5.96726 5.54429C5.96769 5.55361 5.9679 5.56299 5.9679 5.57241C5.9679 5.59351 5.96681 5.61435 5.96469 5.63489C5.97324 6.19 6.42591 6.63737 6.98306 6.63737C7.54442 6.63737 7.99971 6.18321 8.00154 5.62227C8.00019 5.60583 7.9995 5.5892 7.9995 5.57241C7.9995 5.56724 7.99956 5.56209 7.99969 5.55695C7.96769 5.02329 7.52476 4.60039 6.98306 4.60039C6.44564 4.60039 6.00545 5.01662 5.96726 5.54429ZM8.36803 10.3987H2.41665C2.08528 10.3987 1.81665 10.6673 1.81665 10.9987C1.81665 11.3301 2.08528 11.5987 2.41665 11.5987H8.39409C8.67082 12.5086 9.51654 13.1707 10.5169 13.1707C11.5173 13.1707 12.363 12.5086 12.6397 11.5987H15.0833C15.4147 11.5987 15.6833 11.3301 15.6833 10.9987C15.6833 10.6673 15.4147 10.3987 15.0833 10.3987H12.6658C12.4199 9.44128 11.551 8.73372 10.5169 8.73372C9.48279 8.73372 8.61393 9.44128 8.36803 10.3987ZM9.49843 10.9488C9.49978 10.9653 9.50047 10.9819 9.50047 10.9987C9.50047 11.0039 9.5004 11.009 9.50027 11.0141C9.53228 11.5478 9.97521 11.9707 10.5169 11.9707C11.0543 11.9707 11.4945 11.5545 11.5327 11.0268C11.5323 11.0175 11.5321 11.0081 11.5321 10.9987C11.5321 10.9776 11.5332 10.9567 11.5353 10.9362C11.5267 10.3811 11.0741 9.93372 10.5169 9.93372C9.95554 9.93372 9.50025 10.3879 9.49843 10.9488Z" fill="#6D02A3"/>
</svg>
