<svg width="16" height="16" viewBox="0 0 16 16" fill="none" xmlns="http://www.w3.org/2000/svg">
<path fill-rule="evenodd" clip-rule="evenodd" d="M13.9331 7.99909C13.9331 8.15822 13.8699 8.31083 13.7574 8.42335L10.0907 12.09C9.85639 12.3243 9.47649 12.3243 9.24217 12.09C9.00786 11.8557 9.00786 11.4758 9.24217 11.2415L11.8846 8.59909L2.66644 8.59909C2.33507 8.59909 2.06644 8.33046 2.06644 7.99909C2.06644 7.66772 2.33507 7.39909 2.66644 7.39909L11.8846 7.39909L9.24217 4.75669C9.00786 4.52237 9.00786 4.14247 9.24217 3.90816C9.47649 3.67384 9.85639 3.67384 10.0907 3.90816L13.7574 7.57482C13.8699 7.68735 13.9331 7.83996 13.9331 7.99909Z" fill="white"/>
</svg>
