   <svg
              width="32"
              height="32"
              viewBox="0 0 32 32"
              fill="none"
              xmlns="http://www.w3.org/2000/svg"
            >
              <path
                fillRule="evenodd"
                clipRule="evenodd"
                d="M25.6828 24.1506C25.9564 24.4243 26.0633 24.8231 25.9631 25.1969C25.863 25.5707 25.571 25.8627 25.1972 25.9629C24.8234 26.063 24.4245 25.9562 24.1509 25.6825L16.2502 17.7818L8.34943 25.6825C8.07579 25.9562 7.67694 26.063 7.30313 25.9629C6.92932 25.8627 6.63734 25.5707 6.53718 25.1969C6.43702 24.8231 6.54389 24.4243 6.81754 24.1506L14.7183 16.2499L6.81754 8.34919C6.54389 8.07554 6.43702 7.67669 6.53718 7.30288C6.63734 6.92907 6.92932 6.6371 7.30313 6.53693C7.67694 6.43677 8.07579 6.54364 8.34943 6.81729L16.2502 14.718L24.1509 6.81729C24.5739 6.39427 25.2597 6.39427 25.6828 6.81729C26.1058 7.24031 26.1058 7.92617 25.6828 8.34919L17.782 16.2499L25.6828 24.1506Z"
                fill="#1E1E20"
              />
            </svg>