<svg width="16" height="16" viewBox="0 0 16 16" fill="none" xmlns="http://www.w3.org/2000/svg">
<path fill-rule="evenodd" clip-rule="evenodd" d="M14.5653 10.9717L9.71444 2.88745C9.35322 2.28486 8.70223 1.91607 7.99967 1.91602C7.2971 1.91596 6.64606 2.28466 6.28475 2.8872L1.43392 10.9717C1.06324 11.5895 1.05352 12.359 1.40849 12.986C1.76346 13.613 2.42825 14.0007 3.14877 14.0007H12.8504C13.5709 14.0007 14.2357 13.613 14.5907 12.986C14.9457 12.359 14.936 11.5895 14.5653 10.9717ZM7.4996 9.24504V6.28997C7.49938 6.15567 7.52622 6.02271 7.57851 5.89902C7.62133 5.78814 7.68808 5.68807 7.77401 5.60596C7.83457 5.54334 7.91647 5.50577 8.00344 5.50074C8.12884 5.50074 8.25414 5.59587 8.37936 5.78614C8.44734 5.87002 8.48915 5.97204 8.4996 6.0795V9.03458C8.4996 9.14472 8.42312 9.24995 8.27017 9.35028C8.12468 9.44815 7.95332 9.50044 7.77798 9.50047C7.59261 9.50048 7.49982 9.41534 7.4996 9.24504ZM8.56002 10.9816C8.54307 10.8582 8.49375 10.7414 8.41708 10.6431C8.2767 10.4375 8.14132 10.3346 8.01092 10.3346C7.90973 10.3392 7.81414 10.3824 7.74374 10.4552C7.64806 10.547 7.57367 10.6587 7.52578 10.7824C7.46831 10.9193 7.43886 11.0664 7.43917 11.2149C7.43917 11.4054 7.54446 11.5007 7.75503 11.5007C7.95037 11.5008 8.14137 11.4432 8.30413 11.3351C8.47472 11.2247 8.56002 11.1068 8.56002 10.9816Z" fill="#BE0040"/>
</svg>
