<svg width="17" height="16" viewBox="0 0 17 16" fill="none" xmlns="http://www.w3.org/2000/svg">
<path fill-rule="evenodd" clip-rule="evenodd" d="M12.0833 2.06641C12.2424 2.06641 12.3951 2.12962 12.5076 2.24214L15.5076 5.24214C15.7419 5.47646 15.7419 5.85635 15.5076 6.09067C15.2733 6.32498 14.8934 6.32498 14.6591 6.09067L12.6833 4.11493V13.3331C12.6833 13.6644 12.4147 13.9331 12.0833 13.9331C11.7519 13.9331 11.4833 13.6644 11.4833 13.3331V4.11493L9.50758 6.09067C9.27327 6.32498 8.89337 6.32498 8.65905 6.09067C8.42474 5.85636 8.42474 5.47646 8.65905 5.24214L11.6591 2.24214C11.7716 2.12962 11.9242 2.06641 12.0833 2.06641ZM5.41665 2.06641C5.74802 2.06641 6.01665 2.33504 6.01665 2.66641L6.01665 11.8845L7.99238 9.90881C8.2267 9.67449 8.6066 9.67449 8.84091 9.90881C9.07523 10.1431 9.07523 10.523 8.84091 10.7573L5.84091 13.7573C5.6066 13.9917 5.2267 13.9917 4.99239 13.7573L1.99239 10.7573C1.75807 10.523 1.75807 10.1431 1.99239 9.90881C2.2267 9.67449 2.6066 9.67449 2.84091 9.90881L4.81665 11.8845L4.81665 2.66641C4.81665 2.33504 5.08528 2.06641 5.41665 2.06641Z" fill="#6D02A3"/>
</svg>
