<svg width="24" height="24" viewBox="0 0 24 24" fill="none" xmlns="http://www.w3.org/2000/svg">
<path fill-rule="evenodd" clip-rule="evenodd" d="M12 22C17.5228 22 22 17.5228 22 12C22 6.47715 17.5228 2 12 2C6.47715 2 2 6.47715 2 12C2 17.5228 6.47715 22 12 22ZM16.712 9.50858C16.9929 9.11535 16.9018 8.56887 16.5086 8.28798C16.1153 8.0071 15.5689 8.09818 15.288 8.49142L10.8883 14.6509L8.61872 12.3813C8.27701 12.0396 7.72299 12.0396 7.38128 12.3813C7.03957 12.723 7.03957 13.277 7.38128 13.6187L10.3813 16.6187C10.5632 16.8006 10.8158 16.8932 11.0722 16.872C11.3285 16.8508 11.5625 16.7179 11.712 16.5086L16.712 9.50858Z" fill="#018842"/>
</svg>
